<svg xmlns="http://www.w3.org/2000/svg" viewBox="0 0 104.8 208.6"><defs><style>.cls-1{fill:none;stroke:#1d1d1b;stroke-linecap:round;stroke-miterlimit:10;}</style></defs><title>sigilRecurso 11</title><g id="Capa_2" data-name="Capa 2"><g id="Capa_1-2" data-name="Capa 1"><path class="cls-1" d="M52.4,208.09a51.9,51.9,0,0,0,51.9-51.89"/><path class="cls-1" d="M104.3,52.4A51.9,51.9,0,0,0,52.4.5"/><line class="cls-1" x1="52.4" y1="208.09" x2="52.4" y2="0.5"/><path class="cls-1" d="M104.3,156.2a51.9,51.9,0,0,0-51.9-51.9"/><path class="cls-1" d="M.5,52.4a51.9,51.9,0,0,0,51.9,51.9"/><line class="cls-1" x1="52.4" y1="104.3" x2="104.3" y2="208.1"/><path class="cls-1" d="M52.4,104.3a51.9,51.9,0,0,0,51.9-51.9"/><path class="cls-1" d="M52.4.5A51.9,51.9,0,0,0,.5,52.4"/></g></g></svg>